<?xml version="1.0" encoding="utf-8"?>
<!-- Svg Vector Icons : http://www.onlinewebfonts.com/icon -->
<!DOCTYPE svg PUBLIC "-//W3C//DTD SVG 1.1//EN" "http://www.w3.org/Graphics/SVG/1.1/DTD/svg11.dtd">
<svg version="1.1" xmlns="http://www.w3.org/2000/svg" xmlns:xlink="http://www.w3.org/1999/xlink" x="0px" y="0px" viewBox="0 0 1000 1000" enable-background="new 0 0 1000 1000" xml:space="preserve">
<metadata> Svg Vector Icons : http://www.onlinewebfonts.com/icon </metadata>
<g><g><g><path d="M674.7,824.2l59.2,59.2c2.8,2.9,6.7,4.4,10.6,4.4c1.3,0,2.6-0.2,3.9-0.5l80.9-21.7c5.2-1.4,9.2-5.5,10.6-10.6l21.7-80.9c1.4-5.2-0.1-10.7-3.9-14.5l-59.2-59.2c-3.8-3.8-9.3-5.3-14.5-3.9L703,718.2c-5.2,1.4-9.3,5.4-10.6,10.6l-21.6,80.9c-0.4,1.3-0.5,2.6-0.5,3.9C670.2,817.6,671.8,821.4,674.7,824.2z M830.3,774.7l-17.2,64.1L749,856.1l-46.9-47l17.2-64.1l64.1-17.2L830.3,774.7z"/><path d="M416.4,598.9c-5.9-5.9-15.4-5.9-21.3,0L184.7,809.3c-5.9,5.9-5.9,15.4,0,21.3c2.9,2.9,6.8,4.4,10.6,4.4c3.9,0,7.7-1.5,10.6-4.4l210.4-210.3C422.3,614.3,422.3,604.8,416.4,598.9z"/><path d="M373.8,556.4c-5.9-5.9-15.4-5.9-21.3,0L142.1,766.7c-5.9,5.9-5.9,15.4,0,21.3c2.9,2.9,6.8,4.4,10.6,4.4s7.7-1.5,10.6-4.4l210.4-210.3C379.7,571.8,379.7,562.3,373.8,556.4z"/><path d="M432.3,636.2L222,846.5c-5.9,5.9-5.9,15.4,0,21.3c2.9,2.9,6.8,4.4,10.6,4.4s7.7-1.5,10.6-4.4l210.4-210.3c5.9-5.9,5.9-15.4,0-21.3C447.7,630.3,438.2,630.3,432.3,636.2z"/><path d="M863.2,214.4c18.1,0,35.1-7,47.8-19.8c3.4-3.3,6.4-7.1,9.2-11.6l66.6-85.6c4.7-6,4.1-14.5-1.2-19.9l-53.2-53.2c-5.4-5.4-13.9-5.9-19.9-1.3l-85.6,66.6c-4.4,2.8-8.1,5.7-11.6,9.1c-12.8,12.8-19.8,29.8-19.8,47.9c0,12.9,3.7,25.3,10.5,36L542.9,445.8l-69.2-69.2c-2.2-2.2-5-3.2-8-3.7l-89.4-89.4c22.4-67.2,4.9-142.4-45.2-192.5c-35.5-35.5-82.7-55.1-133-55.1c-24.6,0-48.5,4.7-71.2,13.9c-4.7,1.9-8.1,6-9.1,10.9c-1,4.9,0.6,10.1,4.1,13.6l86.8,86.8l-3.7,69.7l-69.7,3.7l-86.8-86.8c-3.6-3.6-8.7-5.1-13.6-4.1c-4.9,1-9.1,4.4-11,9.1c-28.7,70.3-12.5,150.5,41.2,204.2c35.4,35.4,82.5,54.9,132.6,54.9c20.4,0,40.4-3.4,59.7-9.9l84.8,84.8L102.3,726.9c-24.2,24.1-37.5,56.2-37.5,90.4c0,34.2,13.3,66.3,37.5,90.4c24.2,24.1,56.3,37.5,90.4,37.5c34.2,0,66.3-13.3,90.4-37.5l240.1-240.1l64.7,64.7c-22.5,67.4-5.3,142,45.3,192.6c35.5,35.5,82.7,55.1,133,55.1c50.3,0,97.5-19.6,133-55.1c73.3-73.3,73.3-192.7,0-266c-35.5-35.5-82.7-55.1-133-55.1c-20.6,0-40.7,3.5-59.7,9.8l-69.3-69.3c-0.5-3-1.6-5.9-3.9-8.2L564.2,467L827.3,204C838,210.7,850.3,214.4,863.2,214.4z M86.5,335.6c-39.5-39.5-54.8-96.1-41.8-149.2l74.2,74.2c3,3,7.2,4.6,11.4,4.4l89.9-4.8c7.7-0.4,13.8-6.5,14.2-14.2l4.8-89.9c0.2-4.3-1.4-8.4-4.4-11.4l-74.2-74.2c12.2-3,24.8-4.5,37.5-4.5c42.2,0,81.8,16.4,111.7,46.3c42.7,42.7,57.2,107.2,37.1,164.4c-0.3,0.8-0.6,1.6-1,2.4l-1.2,2.8c-8.1,20.7-19.9,38.9-34.9,53.9c-13.9,13.9-30.2,25-48.8,33.1c-1,0.5-2,0.8-3,1.2l-2,0.8c-18.6,7.3-38.2,11-58.2,11C155.7,381.7,116.2,365.3,86.5,335.6z M288,389c7.1-3.8,13.8-8.2,20.4-12.9c1.5-1.1,2.9-2.1,4.3-3.2c6.4-4.9,12.7-10.1,18.4-15.9c5.8-5.8,10.9-12,15.9-18.4c1.3-1.7,2.6-3.5,3.8-5.2c3.9-5.6,7.6-11.4,10.9-17.4c0.5-1,1.2-1.8,1.7-2.7l76.3,76.3L407,422.1c-5.9,5.9-5.9,15.4,0,21.3c2.9,2.9,5.1,6.3,6.6,9.9c4.4,10.9,2.2,23.8-6.6,32.6c-0.1,0.1-0.1,0.1-0.2,0.2c-1.7,1.7-3.7,3.1-5.8,4.3c-0.6,0.4-1.3,0.7-2,1.1c-1.7,0.8-3.5,1.5-5.3,2c-0.5,0.2-1,0.4-1.6,0.5L287.5,389.3C287.7,389.2,287.9,389.1,288,389z M261.8,886.5c-18.5,18.5-43,28.6-69.1,28.6c-26.1,0-50.7-10.2-69.2-28.6c-18.5-18.5-28.7-43-28.7-69.1c0-26.1,10.2-50.7,28.7-69.2l231.6-231.6c9.1,5.3,19.7,8.2,31.4,8.2c0,0,0.1,0,0.1,0c0.1,0,0.2,0,0.2,0c0,0,0,0,0.1,0c0,0,0,0,0,0c15.6-0.3,30.3-6.6,41.3-17.5c19.8-19.8,22.9-50,9.3-73.1l23.5-23.5L599.3,549l-23.5,23.4c-22.6-13.4-54-9.8-73.1,9.3c-11,11-17.2,25.7-17.5,41.3c0,0,0,0,0,0l0,0l0,0c-0.2,11.4,2.6,22.3,8.3,31.8L261.8,886.5z M877.9,680.2c61.6,61.6,61.6,161.8,0,223.5c-29.8,29.8-69.5,46.3-111.7,46.3c-42.2,0-81.9-16.4-111.7-46.3c-44-44-58-109.6-36-167.8c0.4-0.7,0.8-1.5,1-2.3c0.2-0.6,0.5-1.2,0.7-1.8c0.2-0.5,0.4-1.1,0.7-1.6l0.6-1.4l0.5-1.2c8-17.9,18.9-33.9,32.4-47.3c29.9-29.8,69.5-46.3,111.8-46.3C808.4,633.9,848,650.4,877.9,680.2z M635.4,653.1c-14.3,14.2-26,30.8-35,49.1L516,617.9c0-0.1,0-0.1,0.1-0.2c0.6-2.4,1.5-4.7,2.6-7c0.3-0.5,0.5-1,0.8-1.5c1.3-2.2,2.8-4.3,4.6-6.2c11.4-11.4,31.2-11.4,42.6,0c5.9,5.9,15.4,5.9,21.3,0l32.8-32.8l53.3,53.3C659.8,631.7,646.9,641.6,635.4,653.1z M836.6,120.2c1.9-1.9,4.2-3.6,6.9-5.3c0.5-0.3,0.9-0.6,1.3-0.9L920.5,55l34.4,34.4L896,165.2c-0.3,0.4-0.6,0.9-0.9,1.3c-1.7,2.7-3.4,5-5.3,6.8c-14.2,14.2-39,14.2-53.2,0c-7.1-7.1-11-16.6-11-26.6C825.6,136.7,829.5,127.3,836.6,120.2z"/></g></g><g></g><g></g><g></g><g></g><g></g><g></g><g></g><g></g><g></g><g></g><g></g><g></g><g></g><g></g><g></g></g>
</svg>