<?xml version="1.0" encoding="iso-8859-1"?>
<!-- Generator: Adobe Illustrator 19.0.0, SVG Export Plug-In . SVG Version: 6.00 Build 0)  -->
<svg version="1.1" id="Layer_1" xmlns="http://www.w3.org/2000/svg" xmlns:xlink="http://www.w3.org/1999/xlink" x="0px" y="0px"
	 viewBox="0 0 512 512" style="enable-background:new 0 0 512 512;" xml:space="preserve">
<g>
	<g>
		<path d="M473.043,100.174h-33.391V83.478c0-1.208-0.142-2.381-0.386-3.516C435.197,28.04,343.051,0,256,0
			C168.947,0,76.8,28.041,72.734,79.965c-0.244,1.134-0.386,2.306-0.386,3.513v16.696H38.957c-18.413,0-33.391,14.978-33.391,33.391
			v16.696c0,65.584,25.376,125.33,66.783,170.023v108.238C72.348,482.739,166.968,512,256,512s183.652-29.261,183.652-83.478
			V320.284c41.406-44.693,66.783-104.439,66.783-170.023v-16.696C506.435,115.152,491.457,100.174,473.043,100.174z M72.348,265.395
			c-21.029-33.419-33.391-72.819-33.391-115.134v-16.696h33.391V265.395z M406.261,428.522c0,20.424-58.533,50.087-150.261,50.087
			s-150.261-29.663-150.261-50.087V350.47c41.886,31.516,93.926,50.226,150.261,50.226s108.375-18.71,150.261-50.226V428.522z
			 M406.261,306.513c-39.038,37.554-91.946,60.791-150.261,60.791s-111.223-23.237-150.261-60.791V132.864
			c9.589,6.048,20.913,11.276,33.391,15.745v101.826c0,27.619,22.468,50.087,50.087,50.087c27.619,0,50.087-22.468,50.087-50.087
			v-33.391c0-9.206,7.49-16.696,16.696-16.696c9.206,0,16.696,7.49,16.696,16.696v66.783c0,1.153,0.118,2.278,0.341,3.365
			c1.768,26.026,23.279,46.722,49.746,46.722c27.619,0,50.087-22.468,50.087-50.087V148.609
			c12.478-4.469,23.802-9.697,33.391-15.745V306.513z M473.043,150.261c0,42.316-12.363,81.715-33.391,115.134v-131.83h33.391
			V150.261z"/>
	</g>
</g>
<g>
</g>
<g>
</g>
<g>
</g>
<g>
</g>
<g>
</g>
<g>
</g>
<g>
</g>
<g>
</g>
<g>
</g>
<g>
</g>
<g>
</g>
<g>
</g>
<g>
</g>
<g>
</g>
<g>
</g>
</svg>
