<?xml version="1.0" encoding="utf-8"?>
<!-- Generator: Adobe Illustrator 16.0.0, SVG Export Plug-In . SVG Version: 6.00 Build 0)  -->
<!DOCTYPE svg PUBLIC "-//W3C//DTD SVG 1.1//EN" "http://www.w3.org/Graphics/SVG/1.1/DTD/svg11.dtd">
<svg version="1.1" id="Layer_1" xmlns="http://www.w3.org/2000/svg" xmlns:xlink="http://www.w3.org/1999/xlink" x="0px" y="0px"
	 width="1000px" height="1000px" viewBox="0 0 1000 1000" enable-background="new 0 0 1000 1000" xml:space="preserve">
<path fill="#010101" d="M401.493,47.519c-11.592-0.729-25.197,3.105-39.98,11.105l-32.206,16.658
	c-25.509,11.122-97.556,49.157-134.377,144.371c-44.179,114.472-18.603,263.477,77.739,440.889
	c96.131,177.479,206.491,280.205,326.501,305.401c99.741,21.031,171.162-19.159,194.347-34.428l32.206-17.769
	c59.033-32.067,38.731-82.217-2.222-136.599l-24.432-33.316c-40.813-54.276-86.208-91.898-145.482-59.969l-35.538,19.989
	c-102.312,64.968-120.53,37.724-203.23-92.175c-82.7-130.005-116.017-184.075,9.995-264.311l35.538-19.99
	c59.101-32.085,52.196-90.58,28.874-154.366l-14.437-37.758C457.229,87.499,436.25,49.688,401.493,47.519z"/>
</svg>
