<svg xmlns="http://bootstrap-themes.github.io/marketing/assets/img/startup-0.svg">
    <path d="M0,583 C0,583 96.7695313,469.421875 184.878906,473.9375 C272.988281,478.453125 335.605469,545.191402 401.21875,545.191406 C466.832031,545.191411 537.488281,431.839843 612.132812,431.839844 C686.777344,431.839844 763.753906,535.441406 819.679687,516.117188 C875.605469,496.792969 964.378906,370.460938 986.769531,327.941406 C1009.16016,285.421875 1110.4375,160.890625 1239.97266,133.140625 C1369.50781,105.390625 1422.32812,49.4238283 1440,5.68434189e-14 L1440,654.000003 L0,654 L0,583 Z"></path>

<path d="M0,583 C0,583 96.7695313,469.421875 184.878906,473.9375 C272.988281,478.453125 335.605469,545.191402 401.21875,545.191406 C466.832031,545.191411 537.488281,431.839843 612.132812,431.839844 C686.777344,431.839844 763.753906,535.441406 819.679688,516.117188 C875.605469,496.792969 964.378906,370.460938 986.769531,327.941406 C1009.16016,285.421875 1110.4375,160.890625 1239.97266,133.140625 C1369.50781,105.390625 1422.32812,50.0332031 1440,0"></path>

</svg>