<svg xmlns:dc="http://purl.org/dc/elements/1.1/" xmlns:cc="http://creativecommons.org/ns#" xmlns:rdf="http://www.w3.org/1999/02/22-rdf-syntax-ns#" xmlns:svg="http://www.w3.org/2000/svg" xmlns="http://www.w3.org/2000/svg" xmlns:sodipodi="http://sodipodi.sourceforge.net/DTD/sodipodi-0.dtd" xmlns:inkscape="http://www.inkscape.org/namespaces/inkscape" viewBox="0 0 704.49899 536.4635" version="1.1" x="0px" y="0px"><g transform="translate(-115.242,-442.3294)"><path style="" d="m 238.761,442.3294 -123.519,255.2778 68.001,32.6067 c 15.826,7.8197 34.672,1.2182 42.306,-14.5454 l 95.758,-198.0648 c 7.634,-15.8258 0.976,-34.7268 -14.787,-42.5465 l -67.759,-32.7278 z m 457.584,0.9701 -73.577,35.5155 c -12.66,6.2684 -18.026,21.4008 -11.759,34.0613 l 101.095,209.4588 c 6.268,12.6607 21.399,17.905 34.06,11.6367 L 819.741,698.5772 696.345,443.2995 Z m -358.553,80.8499 -96.607,200.1252 48.848,23.5158 c 5.463,-14.2121 19.497,-24.1221 35.881,-24.1221 16.57,0 30.596,10.507 36.243,25.0916 3.289,-0.9929 6.766,-1.5758 10.303,-1.5758 16.757,0 30.838,10.5629 36.486,25.3337 3.475,-0.807 6.771,-1.4541 10.06,-1.4541 16.136,0 30.04,9.6754 36.123,23.5151 3.91,-1.3032 8.13,-2.3029 12.848,-2.3029 21.598,0 38.91,17.2506 38.91,38.9102 0,6.9509 -1.922,13.7466 -5.212,19.3943 l 28.484,13.4543 9.942,4.6063 c 13.653,6.8267 30.333,0.9912 36.726,-12.8487 6.827,-13.8397 0.992,-30.386 -12.848,-37.213 l -33.698,-9.9396 0.727,-2.3033 32.971,12.2429 c 13.84,6.7649 30.386,0.9912 37.213,-12.8486 6.564,-13.4382 1.039,-29.7492 -12.364,-36.8492 l 0.848,0.1215 c 9.123,4.096 19.394,2.7389 27.153,-2.9088 3.537,-2.5445 6.56,-6.0212 8.485,-10.3035 6.641,-13.4675 1.08,-29.2299 -11.394,-36.243 l 1.091,0.2422 c 13.219,4.903 28.212,-0.9713 34.667,-13.8182 6.453,-13.8397 0.805,-30.6374 -12.848,-37.0918 l -9.941,-4.8483 -18.667,-8.9705 -71.76,-34.546 -56.243,-27.2731 -23.637,46.4253 c -9.743,18.5565 -31.866,25.487 -50.545,16.364 -9.123,-4.6546 -16.044,-12.616 -19.394,-22.5458 -3.103,-9.6817 -2.109,-20.2702 2.545,-29.4552 l 23.395,-43.6376 -0.365,-0.363 11.273,-21.4555 c -21.596,-14.3983 -85.699,-14.4243 -85.699,-14.4243 z m 125.094,14.3032 c -15.02,-0.9928 -29.351,7.0206 -36.364,20.364 l -3.395,6.3036 -14.789,28.4851 -8.726,16.2426 c -2.917,5.5857 -3.683,12.3369 -1.698,18.6671 0,0.4965 0,0.7156 0.243,1.2121 0.745,2.1721 1.674,4.2015 2.667,5.9393 2.419,4.0968 6.085,7.283 10.182,9.4551 6.082,2.9169 12.647,3.4345 18.667,1.6968 4.344,-1.2413 8.528,-3.4364 11.88,-6.7877 1.489,-1.6757 2.88,-3.646 4.121,-5.8184 l 1.939,-3.8787 21.333,-42.5466 c 3.165,-5.8958 10.161,-8.3714 16.244,-5.4547 l 156.609,75.517 c 19.612,9.4334 27.92,33.3532 18.424,53.213 l 0,0.2427 c -4.84,9.4334 -12.807,16.5899 -22.304,19.8789 3.166,9.2474 2.693,18.9483 -0.97,27.6369 l 52.971,-34.0613 -86.062,-177.3368 -140.972,-8.97 z M 170.517,661.3644 c 8.812,0 15.757,7.0067 15.757,15.7574 0.07,8.813 -6.945,15.7581 -15.757,15.7581 -8.751,0 -15.758,-6.9451 -15.758,-15.7581 0,-8.7507 7.007,-15.7574 15.758,-15.7574 z m 583.525,15.7574 c 8.813,0 15.76,6.9454 15.76,15.7581 0,8.7508 -7.009,15.7582 -15.76,15.7582 -8.75,0 -15.757,-7.0074 -15.757,-15.7582 0,-8.8127 7.007,-15.7581 15.757,-15.7581 z m -172.365,30.3043 31.758,11.8786 -32.606,-9.5761 0.848,-2.3025 z m -255.885,28.2424 c -14.833,0 -26.909,12.0773 -26.909,26.91 0,14.8328 12.076,26.7884 26.909,26.7884 9,0 16.493,-4.5677 21.335,-11.3945 -0.87,2.6066 -1.576,5.2665 -1.576,8.1214 0,14.8327 12.076,26.7884 26.909,26.7884 9.061,0 16.735,-4.6857 21.577,-11.6366 -0.995,2.8548 -1.819,5.6836 -1.819,8.8487 0,14.8327 12.014,26.7884 26.91,26.7884 10.488,0 19.351,-6.1585 23.757,-14.9091 -1.055,2.9168 -1.818,5.9853 -1.818,9.2125 0,14.8327 12.076,26.9094 26.91,26.9094 14.833,0 26.788,-12.0147 26.788,-26.9094 -0.122,-14.8328 -12.077,-26.91 -26.91,-26.91 -10.487,0 -19.35,6.28 -23.757,15.0307 1.118,-2.8549 1.818,-5.9853 1.818,-9.2125 0,-14.8328 -11.956,-26.9093 -26.788,-26.9093 -9.062,0 -16.858,4.7476 -21.698,11.6366 0.993,-2.7928 1.818,-5.5627 1.818,-8.7278 0,-14.8328 -11.955,-26.9093 -26.788,-26.9093 -8.998,0 -16.615,4.7507 -21.455,11.5155 0.869,-2.6067 1.575,-5.2046 1.575,-8.1215 0,-14.7706 -11.954,-26.91 -26.788,-26.91 z m 230.915,21.0918 31.999,12.1212 -32.847,-9.9398 0.848,-2.1814 z" fill="#000000"/></g><text x="0" y="444.1708" fill="#000000" font-size="5px" font-weight="bold" font-family="'Helvetica Neue', Helvetica, Arial-Unicode, Arial, Sans-serif">Created by Hopkins</text><text x="0" y="449.1708" fill="#000000" font-size="5px" font-weight="bold" font-family="'Helvetica Neue', Helvetica, Arial-Unicode, Arial, Sans-serif">from the Noun Project</text></svg>