<svg xmlns="http://www.w3.org/2000/svg" xmlns:xlink="http://www.w3.org/1999/xlink" version="1.1" x="0px" y="0px" viewBox="0 0 100 125" enable-background="new 0 0 100 100" xml:space="preserve"><g><g><path d="M90.4,19.8H9.6c-2.1,0-3.7,1.7-3.7,3.8v52.8c0,2.1,1.7,3.8,3.7,3.8h80.9c2.1,0,3.7-1.7,3.7-3.8V23.6    C94.1,21.5,92.5,19.8,90.4,19.8z M88.4,74.4H11.6V25.6h76.8V74.4z M87,27H13V73H87V27z M35.3,32.8H64v2.9H35.3V32.8z M20.2,40    h59.6v2.8H20.2V40z M20.2,47.1h59.6V50H20.2V47.1z M32.4,64.3H20.2v-2.9h12.2V64.3z M56.8,57.2H20.2v-2.9h36.6V57.2z M83.3,63.7    c-0.5,1.7-1.5,1.2-2.4,2.4c-0.9,1.3-0.1,2-1.7,2.9c-1.6,0.9-1.6-0.3-3.4,0c-1.8,0.3-1.2,1.5-3.3,0.9c-2.1-0.6-1.1-1.2-2.4-2.4    c-1.3-1.2-2.1-0.1-2.9-1.7c-0.9-1.5,0.1-1.8,0-3.4c-0.1-1.6-1.3-1.6-0.9-3.3c0.4-1.6,1.1-0.7,2.4-2.4c1.3-1.7,0.4-2.1,1.7-2.9    c1.3-0.8,1.8,0.2,3.4,0c1.6-0.2,1.7-1.2,3.3-0.9c1.6,0.4,1.2,1.5,2.4,2.4c1.2,0.9,2.3,0.4,2.9,1.7c0.6,1.3-0.1,1.7,0,3.4    C82.5,62.1,83.7,61.9,83.3,63.7z M76.2,55.9c-3.1-0.8-6.2,1-7,4.1c-0.8,3.1,1,6.2,4.1,7c3.1,0.8,6.2-1,7-4.1    C81.1,59.9,79.3,56.7,76.2,55.9z M74.8,65.7c-2.3,0-4.2-1.9-4.2-4.2c0-2.3,1.9-4.2,4.2-4.2c2.3,0,4.2,1.9,4.2,4.2    C78.9,63.8,77.1,65.7,74.8,65.7z"/></g></g><text x="0" y="115" fill="#000000" font-size="5px" font-weight="bold" font-family="'Helvetica Neue', Helvetica, Arial-Unicode, Arial, Sans-serif">Created by ali zizai</text><text x="0" y="120" fill="#000000" font-size="5px" font-weight="bold" font-family="'Helvetica Neue', Helvetica, Arial-Unicode, Arial, Sans-serif">from the Noun Project</text></svg>