<?xml version="1.0" encoding="utf-8"?>
<!-- Generator: Adobe Illustrator 16.0.0, SVG Export Plug-In . SVG Version: 6.00 Build 0)  -->
<!DOCTYPE svg PUBLIC "-//W3C//DTD SVG 1.1//EN" "http://www.w3.org/Graphics/SVG/1.1/DTD/svg11.dtd">
<svg version="1.1" id="Layer_1" xmlns="http://www.w3.org/2000/svg" xmlns:xlink="http://www.w3.org/1999/xlink" x="0px" y="0px"
	 width="1000px" height="1000px" viewBox="0 0 1000 1000" enable-background="new 0 0 1000 1000" xml:space="preserve">
<g>
	<g>
		<path d="M140,575.648h25.088H360.64V421.024H165.088H140V575.648z M290.608,464.44c18.28,0,33.096,15.168,33.096,33.896
			c0,18.72-14.816,33.896-33.096,33.896s-33.096-15.168-33.096-33.896C257.512,479.608,272.328,464.44,290.608,464.44z"/>
	</g>
	<g>
		<path d="M860,303.432c0-36.816-33-66.76-73.56-66.76H250.328c-40.608,0-73.624,29.944-73.624,66.76v93.808h195.56
			c6.416,0,11.608,5.319,11.608,11.896v178.408c0,6.576-5.192,11.888-11.608,11.888h-195.56v93.809
			c0,36.8,33.016,66.768,73.624,66.768H786.44C827,760,860,730.032,860,693.232V303.432z"/>
	</g>
	<g>
		<polygon points="622.616,40 367.672,208.672 429.28,182.704 653.104,88.32 		"/>
	</g>
	<g>
		<path d="M716.384,87.36l-41.52,17.496v0.024L416.392,213.856h110.673l125-52.712c9.407,23.44,35.6,34.616,58.472,24.976
			l11.144,27.736h45.584L716.384,87.36z"/>
	</g>
</g>
</svg>
